<?xml version="1.0" encoding="UTF-8" standalone="no"?>
<!DOCTYPE svg PUBLIC "-//W3C//DTD SVG 1.1//EN"
 "http://www.w3.org/Graphics/SVG/1.1/DTD/svg11.dtd">
<!-- Generated by graphviz version 5.0.0 (20220707.1540)
 -->
<!-- Title: dependencies Pages: 1 -->
<svg width="561pt" height="247pt"
 viewBox="0.00 0.00 561.00 246.80" xmlns="http://www.w3.org/2000/svg" xmlns:xlink="http://www.w3.org/1999/xlink">
<g id="graph0" class="graph" transform="scale(1 1) rotate(0) translate(4 242.8)">
<title>dependencies</title>
<polygon fill="white" stroke="transparent" points="-4,4 -4,-242.8 557,-242.8 557,4 -4,4"/>
<text text-anchor="middle" x="276.5" y="-8.2" font-family="sans-serif" font-size="14.00">dependencies</text>
<g id="clust1" class="cluster">
<title>cluster_UserManagementModule</title>
<polygon fill="none" stroke="black" stroke-dasharray="1,5" points="8,-32.8 8,-230.8 545,-230.8 545,-32.8 8,-32.8"/>
</g>
<g id="clust6" class="cluster">
<title>cluster_UserManagementModule_providers</title>
<polygon fill="none" stroke="black" points="16,-40.8 16,-92.8 537,-92.8 537,-40.8 16,-40.8"/>
</g>
<g id="clust4" class="cluster">
<title>cluster_UserManagementModule_exports</title>
<polygon fill="none" stroke="black" points="230,-170.8 230,-222.8 406,-222.8 406,-170.8 230,-170.8"/>
</g>
<!-- UserManagementService  -->
<g id="node1" class="node">
<title>UserManagementService </title>
<polygon fill="#fb8072" stroke="black" points="398.5,-214.8 237.5,-214.8 237.5,-178.8 398.5,-178.8 398.5,-214.8"/>
<text text-anchor="middle" x="318" y="-192.6" font-family="Times,serif" font-size="14.00">UserManagementService </text>
</g>
<!-- UserManagementModule -->
<g id="node2" class="node">
<title>UserManagementModule</title>
<polygon fill="#8dd3c7" stroke="black" points="397.57,-149.8 394.57,-153.8 373.57,-153.8 370.57,-149.8 238.43,-149.8 238.43,-113.8 397.57,-113.8 397.57,-149.8"/>
<text text-anchor="middle" x="318" y="-127.6" font-family="Times,serif" font-size="14.00">UserManagementModule</text>
</g>
<!-- UserManagementModule&#45;&gt;UserManagementService  -->
<g id="edge1" class="edge">
<title>UserManagementModule&#45;&gt;UserManagementService </title>
<path fill="none" stroke="black" stroke-dasharray="5,2" d="M318,-149.91C318,-149.91 318,-168.79 318,-168.79"/>
<polygon fill="black" stroke="black" points="314.5,-168.79 318,-178.79 321.5,-168.79 314.5,-168.79"/>
</g>
<!-- CRUDService -->
<g id="node3" class="node">
<title>CRUDService</title>
<ellipse fill="#fdb462" stroke="black" cx="462" cy="-66.8" rx="66.65" ry="18"/>
<text text-anchor="middle" x="462" y="-62.6" font-family="Times,serif" font-size="14.00">CRUDService</text>
</g>
<!-- CRUDService&#45;&gt;UserManagementModule -->
<g id="edge2" class="edge">
<title>CRUDService&#45;&gt;UserManagementModule</title>
<path fill="none" stroke="black" d="M394.99,-66.8C389.48,-66.8 385.97,-66.8 385.97,-66.8 385.97,-66.8 385.97,-103.69 385.97,-103.69"/>
<polygon fill="black" stroke="black" points="382.47,-103.69 385.97,-113.69 389.47,-103.69 382.47,-103.69"/>
</g>
<!-- JWTService -->
<g id="node4" class="node">
<title>JWTService</title>
<ellipse fill="#fdb462" stroke="black" cx="318" cy="-66.8" rx="58.53" ry="18"/>
<text text-anchor="middle" x="318" y="-62.6" font-family="Times,serif" font-size="14.00">JWTService</text>
</g>
<!-- JWTService&#45;&gt;UserManagementModule -->
<g id="edge3" class="edge">
<title>JWTService&#45;&gt;UserManagementModule</title>
<path fill="none" stroke="black" d="M318,-84.91C318,-84.91 318,-103.79 318,-103.79"/>
<polygon fill="black" stroke="black" points="314.5,-103.79 318,-113.79 321.5,-103.79 314.5,-103.79"/>
</g>
<!-- UserManagementService -->
<g id="node5" class="node">
<title>UserManagementService</title>
<ellipse fill="#fdb462" stroke="black" cx="133" cy="-66.8" rx="108.78" ry="18"/>
<text text-anchor="middle" x="133" y="-62.6" font-family="Times,serif" font-size="14.00">UserManagementService</text>
</g>
<!-- UserManagementService&#45;&gt;UserManagementModule -->
<g id="edge4" class="edge">
<title>UserManagementService&#45;&gt;UserManagementModule</title>
<path fill="none" stroke="black" d="M241.99,-66.8C247.28,-66.8 250.44,-66.8 250.44,-66.8 250.44,-66.8 250.44,-103.69 250.44,-103.69"/>
<polygon fill="black" stroke="black" points="246.94,-103.69 250.44,-113.69 253.94,-103.69 246.94,-103.69"/>
</g>
</g>
</svg>
