<?xml version="1.0" encoding="UTF-8" standalone="no"?>
<!DOCTYPE svg PUBLIC "-//W3C//DTD SVG 1.1//EN"
 "http://www.w3.org/Graphics/SVG/1.1/DTD/svg11.dtd">
<!-- Generated by graphviz version 5.0.0 (20220707.1540)
 -->
<!-- Title: dependencies Pages: 1 -->
<svg width="326pt" height="174pt"
 viewBox="0.00 0.00 326.00 173.80" xmlns="http://www.w3.org/2000/svg" xmlns:xlink="http://www.w3.org/1999/xlink">
<g id="graph0" class="graph" transform="scale(1 1) rotate(0) translate(4 169.8)">
<title>dependencies</title>
<polygon fill="white" stroke="transparent" points="-4,4 -4,-169.8 322,-169.8 322,4 -4,4"/>
<text text-anchor="middle" x="159" y="-8.2" font-family="sans-serif" font-size="14.00">dependencies</text>
<g id="clust1" class="cluster">
<title>cluster_CommonModule</title>
<polygon fill="none" stroke="black" stroke-dasharray="1,5" points="8,-32.8 8,-157.8 310,-157.8 310,-32.8 8,-32.8"/>
</g>
<g id="clust6" class="cluster">
<title>cluster_CommonModule_providers</title>
<polygon fill="none" stroke="black" points="16,-40.8 16,-92.8 302,-92.8 302,-40.8 16,-40.8"/>
</g>
<!-- CRUDService -->
<g id="node1" class="node">
<title>CRUDService</title>
<ellipse fill="#fdb462" stroke="black" cx="227" cy="-66.8" rx="66.65" ry="18"/>
<text text-anchor="middle" x="227" y="-62.6" font-family="Times,serif" font-size="14.00">CRUDService</text>
</g>
<!-- CommonModule -->
<g id="node3" class="node">
<title>CommonModule</title>
<polygon fill="#8dd3c7" stroke="black" points="210.67,-149.8 207.67,-153.8 186.67,-153.8 183.67,-149.8 99.33,-149.8 99.33,-113.8 210.67,-113.8 210.67,-149.8"/>
<text text-anchor="middle" x="155" y="-127.6" font-family="Times,serif" font-size="14.00">CommonModule</text>
</g>
<!-- CRUDService&#45;&gt;CommonModule -->
<g id="edge1" class="edge">
<title>CRUDService&#45;&gt;CommonModule</title>
<path fill="none" stroke="black" d="M185.51,-81.23C185.51,-81.23 185.51,-103.69 185.51,-103.69"/>
<polygon fill="black" stroke="black" points="182.01,-103.69 185.51,-113.69 189.01,-103.69 182.01,-103.69"/>
</g>
<!-- JWTService -->
<g id="node2" class="node">
<title>JWTService</title>
<ellipse fill="#fdb462" stroke="black" cx="83" cy="-66.8" rx="58.53" ry="18"/>
<text text-anchor="middle" x="83" y="-62.6" font-family="Times,serif" font-size="14.00">JWTService</text>
</g>
<!-- JWTService&#45;&gt;CommonModule -->
<g id="edge2" class="edge">
<title>JWTService&#45;&gt;CommonModule</title>
<path fill="none" stroke="black" d="M120.47,-80.9C120.47,-80.9 120.47,-103.52 120.47,-103.52"/>
<polygon fill="black" stroke="black" points="116.97,-103.52 120.47,-113.52 123.97,-103.52 116.97,-103.52"/>
</g>
</g>
</svg>
