<?xml version="1.0" encoding="UTF-8" standalone="no"?>
<!DOCTYPE svg PUBLIC "-//W3C//DTD SVG 1.1//EN"
 "http://www.w3.org/Graphics/SVG/1.1/DTD/svg11.dtd">
<!-- Generated by graphviz version 5.0.0 (20220707.1540)
 -->
<!-- Title: dependencies Pages: 1 -->
<svg width="554pt" height="174pt"
 viewBox="0.00 0.00 554.00 173.80" xmlns="http://www.w3.org/2000/svg" xmlns:xlink="http://www.w3.org/1999/xlink">
<g id="graph0" class="graph" transform="scale(1 1) rotate(0) translate(4 169.8)">
<title>dependencies</title>
<polygon fill="white" stroke="transparent" points="-4,4 -4,-169.8 550,-169.8 550,4 -4,4"/>
<text text-anchor="middle" x="273" y="-8.2" font-family="sans-serif" font-size="14.00">dependencies</text>
<g id="clust1" class="cluster">
<title>cluster_ShoppingCartModule</title>
<polygon fill="none" stroke="black" stroke-dasharray="1,5" points="8,-32.8 8,-157.8 538,-157.8 538,-32.8 8,-32.8"/>
</g>
<g id="clust6" class="cluster">
<title>cluster_ShoppingCartModule_providers</title>
<polygon fill="none" stroke="black" points="16,-40.8 16,-92.8 530,-92.8 530,-40.8 16,-40.8"/>
</g>
<!-- CRUDService -->
<g id="node1" class="node">
<title>CRUDService</title>
<ellipse fill="#fdb462" stroke="black" cx="455" cy="-66.8" rx="66.65" ry="18"/>
<text text-anchor="middle" x="455" y="-62.6" font-family="Times,serif" font-size="14.00">CRUDService</text>
</g>
<!-- ShoppingCartModule -->
<g id="node4" class="node">
<title>ShoppingCartModule</title>
<polygon fill="#8dd3c7" stroke="black" points="368.83,-149.8 365.83,-153.8 344.83,-153.8 341.83,-149.8 231.17,-149.8 231.17,-113.8 368.83,-113.8 368.83,-149.8"/>
<text text-anchor="middle" x="300" y="-127.6" font-family="Times,serif" font-size="14.00">ShoppingCartModule</text>
</g>
<!-- CRUDService&#45;&gt;ShoppingCartModule -->
<g id="edge1" class="edge">
<title>CRUDService&#45;&gt;ShoppingCartModule</title>
<path fill="none" stroke="black" d="M455,-84.91C455,-104.14 455,-131.8 455,-131.8 455,-131.8 378.89,-131.8 378.89,-131.8"/>
<polygon fill="black" stroke="black" points="378.89,-128.3 368.89,-131.8 378.89,-135.3 378.89,-128.3"/>
</g>
<!-- ProductService -->
<g id="node2" class="node">
<title>ProductService</title>
<ellipse fill="#fdb462" stroke="black" cx="300" cy="-66.8" rx="70.07" ry="18"/>
<text text-anchor="middle" x="300" y="-62.6" font-family="Times,serif" font-size="14.00">ProductService</text>
</g>
<!-- ProductService&#45;&gt;ShoppingCartModule -->
<g id="edge2" class="edge">
<title>ProductService&#45;&gt;ShoppingCartModule</title>
<path fill="none" stroke="black" d="M300,-84.91C300,-84.91 300,-103.79 300,-103.79"/>
<polygon fill="black" stroke="black" points="296.5,-103.79 300,-113.79 303.5,-103.79 296.5,-103.79"/>
</g>
<!-- ShoppingCartService -->
<g id="node3" class="node">
<title>ShoppingCartService</title>
<ellipse fill="#fdb462" stroke="black" cx="118" cy="-66.8" rx="93.79" ry="18"/>
<text text-anchor="middle" x="118" y="-62.6" font-family="Times,serif" font-size="14.00">ShoppingCartService</text>
</g>
<!-- ShoppingCartService&#45;&gt;ShoppingCartModule -->
<g id="edge3" class="edge">
<title>ShoppingCartService&#45;&gt;ShoppingCartModule</title>
<path fill="none" stroke="black" d="M118,-84.91C118,-104.14 118,-131.8 118,-131.8 118,-131.8 221.19,-131.8 221.19,-131.8"/>
<polygon fill="black" stroke="black" points="221.19,-135.3 231.19,-131.8 221.19,-128.3 221.19,-135.3"/>
</g>
</g>
</svg>
