<?xml version="1.0" encoding="UTF-8" standalone="no"?>
<!DOCTYPE svg PUBLIC "-//W3C//DTD SVG 1.1//EN"
 "http://www.w3.org/Graphics/SVG/1.1/DTD/svg11.dtd">
<!-- Generated by graphviz version 5.0.0 (20220707.1540)
 -->
<!-- Title: dependencies Pages: 1 -->
<svg width="759pt" height="174pt"
 viewBox="0.00 0.00 759.00 173.80" xmlns="http://www.w3.org/2000/svg" xmlns:xlink="http://www.w3.org/1999/xlink">
<g id="graph0" class="graph" transform="scale(1 1) rotate(0) translate(4 169.8)">
<title>dependencies</title>
<polygon fill="white" stroke="transparent" points="-4,4 -4,-169.8 755,-169.8 755,4 -4,4"/>
<text text-anchor="middle" x="375.5" y="-8.2" font-family="sans-serif" font-size="14.00">dependencies</text>
<g id="clust1" class="cluster">
<title>cluster_AppModule</title>
<polygon fill="none" stroke="black" stroke-dasharray="1,5" points="8,-32.8 8,-157.8 743,-157.8 743,-32.8 8,-32.8"/>
</g>
<g id="clust3" class="cluster">
<title>cluster_AppModule_imports</title>
<polygon fill="none" stroke="black" points="154,-40.8 154,-92.8 735,-92.8 735,-40.8 154,-40.8"/>
</g>
<g id="clust6" class="cluster">
<title>cluster_AppModule_providers</title>
<polygon fill="none" stroke="black" points="16,-40.8 16,-92.8 146,-92.8 146,-40.8 16,-40.8"/>
</g>
<!-- CommonModule -->
<g id="node1" class="node">
<title>CommonModule</title>
<polygon fill="#8dd3c7" stroke="black" points="726.67,-84.8 723.67,-88.8 702.67,-88.8 699.67,-84.8 615.33,-84.8 615.33,-48.8 726.67,-48.8 726.67,-84.8"/>
<text text-anchor="middle" x="671" y="-62.6" font-family="Times,serif" font-size="14.00">CommonModule</text>
</g>
<!-- AppModule -->
<g id="node5" class="node">
<title>AppModule</title>
<polygon fill="#8dd3c7" stroke="black" points="449.66,-149.8 446.66,-153.8 425.66,-153.8 422.66,-149.8 366.34,-149.8 366.34,-113.8 449.66,-113.8 449.66,-149.8"/>
<text text-anchor="middle" x="408" y="-127.6" font-family="Times,serif" font-size="14.00">AppModule</text>
</g>
<!-- CommonModule&#45;&gt;AppModule -->
<g id="edge1" class="edge">
<title>CommonModule&#45;&gt;AppModule</title>
<path fill="none" stroke="black" d="M671,-85.08C671,-106.12 671,-137.8 671,-137.8 671,-137.8 459.67,-137.8 459.67,-137.8"/>
<polygon fill="black" stroke="black" points="459.67,-134.3 449.67,-137.8 459.67,-141.3 459.67,-134.3"/>
</g>
<!-- ProductModule -->
<g id="node2" class="node">
<title>ProductModule</title>
<polygon fill="#8dd3c7" stroke="black" points="597.6,-84.8 594.6,-88.8 573.6,-88.8 570.6,-84.8 494.4,-84.8 494.4,-48.8 597.6,-48.8 597.6,-84.8"/>
<text text-anchor="middle" x="546" y="-62.6" font-family="Times,serif" font-size="14.00">ProductModule</text>
</g>
<!-- ProductModule&#45;&gt;AppModule -->
<g id="edge2" class="edge">
<title>ProductModule&#45;&gt;AppModule</title>
<path fill="none" stroke="black" d="M546,-84.82C546,-102.17 546,-125.8 546,-125.8 546,-125.8 459.78,-125.8 459.78,-125.8"/>
<polygon fill="black" stroke="black" points="459.78,-122.3 449.78,-125.8 459.78,-129.3 459.78,-122.3"/>
</g>
<!-- ShoppingCartModule -->
<g id="node3" class="node">
<title>ShoppingCartModule</title>
<polygon fill="#8dd3c7" stroke="black" points="476.83,-84.8 473.83,-88.8 452.83,-88.8 449.83,-84.8 339.17,-84.8 339.17,-48.8 476.83,-48.8 476.83,-84.8"/>
<text text-anchor="middle" x="408" y="-62.6" font-family="Times,serif" font-size="14.00">ShoppingCartModule</text>
</g>
<!-- ShoppingCartModule&#45;&gt;AppModule -->
<g id="edge3" class="edge">
<title>ShoppingCartModule&#45;&gt;AppModule</title>
<path fill="none" stroke="black" d="M408,-84.91C408,-84.91 408,-103.79 408,-103.79"/>
<polygon fill="black" stroke="black" points="404.5,-103.79 408,-113.79 411.5,-103.79 404.5,-103.79"/>
</g>
<!-- UserManagementModule -->
<g id="node4" class="node">
<title>UserManagementModule</title>
<polygon fill="#8dd3c7" stroke="black" points="321.57,-84.8 318.57,-88.8 297.57,-88.8 294.57,-84.8 162.43,-84.8 162.43,-48.8 321.57,-48.8 321.57,-84.8"/>
<text text-anchor="middle" x="242" y="-62.6" font-family="Times,serif" font-size="14.00">UserManagementModule</text>
</g>
<!-- UserManagementModule&#45;&gt;AppModule -->
<g id="edge4" class="edge">
<title>UserManagementModule&#45;&gt;AppModule</title>
<path fill="none" stroke="black" d="M242,-84.82C242,-102.17 242,-125.8 242,-125.8 242,-125.8 356.11,-125.8 356.11,-125.8"/>
<polygon fill="black" stroke="black" points="356.11,-129.3 366.11,-125.8 356.11,-122.3 356.11,-129.3"/>
</g>
<!-- AppService -->
<g id="node6" class="node">
<title>AppService</title>
<ellipse fill="#fdb462" stroke="black" cx="81" cy="-66.8" rx="56.75" ry="18"/>
<text text-anchor="middle" x="81" y="-62.6" font-family="Times,serif" font-size="14.00">AppService</text>
</g>
<!-- AppService&#45;&gt;AppModule -->
<g id="edge5" class="edge">
<title>AppService&#45;&gt;AppModule</title>
<path fill="none" stroke="black" d="M81,-85.08C81,-106.12 81,-137.8 81,-137.8 81,-137.8 356.25,-137.8 356.25,-137.8"/>
<polygon fill="black" stroke="black" points="356.25,-141.3 366.25,-137.8 356.25,-134.3 356.25,-141.3"/>
</g>
</g>
</svg>
