<?xml version="1.0" encoding="UTF-8" standalone="no"?>
<!DOCTYPE svg PUBLIC "-//W3C//DTD SVG 1.1//EN"
 "http://www.w3.org/Graphics/SVG/1.1/DTD/svg11.dtd">
<!-- Generated by graphviz version 5.0.0 (20220707.1540)
 -->
<!-- Title: dependencies Pages: 1 -->
<svg width="911pt" height="174pt"
 viewBox="0.00 0.00 911.00 173.80" xmlns="http://www.w3.org/2000/svg" xmlns:xlink="http://www.w3.org/1999/xlink">
<g id="graph0" class="graph" transform="scale(1 1) rotate(0) translate(4 169.8)">
<title>dependencies</title>
<polygon fill="white" stroke="transparent" points="-4,4 -4,-169.8 907,-169.8 907,4 -4,4"/>
<text text-anchor="middle" x="451.5" y="-8.2" font-family="sans-serif" font-size="14.00">dependencies</text>
<g id="clust1" class="cluster">
<title>cluster_ProductModule</title>
<polygon fill="none" stroke="black" stroke-dasharray="1,5" points="8,-32.8 8,-157.8 895,-157.8 895,-32.8 8,-32.8"/>
</g>
<g id="clust6" class="cluster">
<title>cluster_ProductModule_providers</title>
<polygon fill="none" stroke="black" points="16,-40.8 16,-92.8 887,-92.8 887,-40.8 16,-40.8"/>
</g>
<!-- AddToCartListener -->
<g id="node1" class="node">
<title>AddToCartListener</title>
<ellipse fill="#fdb462" stroke="black" cx="792" cy="-66.8" rx="86.82" ry="18"/>
<text text-anchor="middle" x="792" y="-62.6" font-family="Times,serif" font-size="14.00">AddToCartListener</text>
</g>
<!-- ProductModule -->
<g id="node6" class="node">
<title>ProductModule</title>
<polygon fill="#8dd3c7" stroke="black" points="528.6,-149.8 525.6,-153.8 504.6,-153.8 501.6,-149.8 425.4,-149.8 425.4,-113.8 528.6,-113.8 528.6,-149.8"/>
<text text-anchor="middle" x="477" y="-127.6" font-family="Times,serif" font-size="14.00">ProductModule</text>
</g>
<!-- AddToCartListener&#45;&gt;ProductModule -->
<g id="edge1" class="edge">
<title>AddToCartListener&#45;&gt;ProductModule</title>
<path fill="none" stroke="black" d="M792,-85.08C792,-106.12 792,-137.8 792,-137.8 792,-137.8 538.66,-137.8 538.66,-137.8"/>
<polygon fill="black" stroke="black" points="538.66,-134.3 528.66,-137.8 538.66,-141.3 538.66,-134.3"/>
</g>
<!-- CRUDService -->
<g id="node2" class="node">
<title>CRUDService</title>
<ellipse fill="#fdb462" stroke="black" cx="621" cy="-66.8" rx="66.65" ry="18"/>
<text text-anchor="middle" x="621" y="-62.6" font-family="Times,serif" font-size="14.00">CRUDService</text>
</g>
<!-- CRUDService&#45;&gt;ProductModule -->
<g id="edge2" class="edge">
<title>CRUDService&#45;&gt;ProductModule</title>
<path fill="none" stroke="black" d="M621,-84.82C621,-102.17 621,-125.8 621,-125.8 621,-125.8 538.58,-125.8 538.58,-125.8"/>
<polygon fill="black" stroke="black" points="538.58,-122.3 528.58,-125.8 538.58,-129.3 538.58,-122.3"/>
</g>
<!-- JWTService -->
<g id="node3" class="node">
<title>JWTService</title>
<ellipse fill="#fdb462" stroke="black" cx="477" cy="-66.8" rx="58.53" ry="18"/>
<text text-anchor="middle" x="477" y="-62.6" font-family="Times,serif" font-size="14.00">JWTService</text>
</g>
<!-- JWTService&#45;&gt;ProductModule -->
<g id="edge3" class="edge">
<title>JWTService&#45;&gt;ProductModule</title>
<path fill="none" stroke="black" d="M477,-84.91C477,-84.91 477,-103.79 477,-103.79"/>
<polygon fill="black" stroke="black" points="473.5,-103.79 477,-113.79 480.5,-103.79 473.5,-103.79"/>
</g>
<!-- ProductService -->
<g id="node4" class="node">
<title>ProductService</title>
<ellipse fill="#fdb462" stroke="black" cx="330" cy="-66.8" rx="70.07" ry="18"/>
<text text-anchor="middle" x="330" y="-62.6" font-family="Times,serif" font-size="14.00">ProductService</text>
</g>
<!-- ProductService&#45;&gt;ProductModule -->
<g id="edge4" class="edge">
<title>ProductService&#45;&gt;ProductModule</title>
<path fill="none" stroke="black" d="M330,-84.82C330,-102.17 330,-125.8 330,-125.8 330,-125.8 415.17,-125.8 415.17,-125.8"/>
<polygon fill="black" stroke="black" points="415.17,-129.3 425.17,-125.8 415.17,-122.3 415.17,-129.3"/>
</g>
<!-- UserManagementService -->
<g id="node5" class="node">
<title>UserManagementService</title>
<ellipse fill="#fdb462" stroke="black" cx="133" cy="-66.8" rx="108.78" ry="18"/>
<text text-anchor="middle" x="133" y="-62.6" font-family="Times,serif" font-size="14.00">UserManagementService</text>
</g>
<!-- UserManagementService&#45;&gt;ProductModule -->
<g id="edge5" class="edge">
<title>UserManagementService&#45;&gt;ProductModule</title>
<path fill="none" stroke="black" d="M133,-85.08C133,-106.12 133,-137.8 133,-137.8 133,-137.8 415.13,-137.8 415.13,-137.8"/>
<polygon fill="black" stroke="black" points="415.13,-141.3 425.13,-137.8 415.13,-134.3 415.13,-141.3"/>
</g>
</g>
</svg>
